Coordinates
version=1
nRows=16
nColumns=36
inDegrees=yes

Units are S.I. units (second, meters, Newtons, ...)
If the header above contains a line with 'inDegrees', this indicates whether rotational values are in degrees (yes) or radians (no).

endheader
time	pelvis_tilt	pelvis_list	pelvis_rotation	pelvis_tx	pelvis_ty	pelvis_tz	hip_flexion_r	hip_adduction_r	hip_rotation_r	knee_angle_r	knee_angle_r_beta	ankle_angle_r	subtalar_angle_r	mtp_angle_r	hip_flexion_l	hip_adduction_l	hip_rotation_l	knee_angle_l	knee_angle_l_beta	ankle_angle_l	subtalar_angle_l	mtp_angle_l	lumbar_extension	lumbar_bending	lumbar_rotation	arm_flex_r	arm_add_r	arm_rot_r	elbow_flex_r	pro_sup_r	arm_flex_l	arm_add_l	arm_rot_l	elbow_flex_l	pro_sup_l
      3.56666670	     -0.21925563	      1.18336725	      7.14151631	     -0.08891015	      1.28188460	      0.01107812	     -0.58074763	     -1.96467312	     -6.91474124	      4.53998563	      0.07923770	      9.85721915	     -1.94448694	     -7.49999987	      1.77501355	     -0.09316252	      2.20816170	      4.41687122	      0.07708895	     10.52033531	      1.10082586	     -7.49999987	    -14.49666450	     -1.17877591	     -4.09575697	      4.72156137	     -6.77108817	     11.60008472	     26.07525877	     72.85175654	      6.55048653	    -10.95609790	     14.96525602	     35.77691562	     81.31422578
      3.58333330	     -0.49562911	      1.17849565	      7.09947524	     -0.08964465	      1.27733708	      0.01274486	     -0.04193223	     -1.98363214	     -6.69514294	      4.88199934	      0.08520696	     10.24850240	     -2.09725283	     -7.49999987	      2.34110240	     -0.06635442	      2.38120042	      5.20221752	      0.09079582	     11.15592746	      0.63341351	     -7.49999987	    -14.60870485	     -1.11894696	     -4.22192142	      4.51794576	     -6.93942674	     11.05835280	     26.87752677	     72.05892380	      6.10730203	    -10.86156590	     14.38973583	     36.07385477	     80.18657923
      3.60000000	     -0.74037778	      1.19154678	      7.02267369	     -0.08978805	      1.27575418	      0.01216267	      0.47456463	     -2.02846361	     -6.64317509	      5.26229507	      0.09184438	     10.64352365	     -1.98516301	     -7.49999987	      2.94719674	     -0.00860875	      2.54750256	      6.02651806	      0.10518258	     11.20801474	     -0.37503391	     -7.49999987	    -14.79423844	     -1.01841534	     -4.02018099	      4.32497365	     -6.94538689	      8.32417065	     26.75921028	     80.31313327	      6.07040333	    -10.31688566	     12.13587423	     35.40134933	     90.99595516
      3.61666670	     -0.75650019	      1.24811778	      6.96269770	     -0.08768747	      1.26742858	      0.01486186	      0.74980050	     -2.06370145	     -6.37661956	      5.69279419	      0.09935800	     11.13658492	     -2.17379809	     -7.49999987	      3.26736679	      0.02520581	      2.52321140	      6.94822208	      0.12126935	     11.84538825	     -0.91458232	     -7.49999987	    -15.26668382	     -0.99343456	     -3.88720619	      4.35004943	     -7.15375580	      8.31621357	     26.78285844	     80.33187382	      5.89418228	    -10.32427530	     12.12001672	     35.38229485	     90.98736828
      3.63333330	     -1.09447147	      1.23264520	      6.90881030	     -0.08496233	      1.26872267	      0.01584697	      1.38624759	     -2.05824471	     -5.97147041	      6.34792850	      0.11079225	     11.44714100	     -2.73176994	     -7.49999987	      4.02406013	      0.01899160	      2.72302020	      7.96405762	      0.13899903	     12.24556350	     -1.86705807	     -7.49999987	    -15.35732030	     -0.91424110	     -3.85725468	      3.96927639	     -7.38934685	      8.10953122	     27.39201782	     78.52583977	      5.34359094	    -10.29626410	     11.79795811	     35.81325373	     88.92461188
      3.65000000	     -1.09066506	      1.26803108	      6.77354810	     -0.08216291	      1.27735886	      0.01556001	      1.51289088	     -2.07673521	     -5.81022973	      6.75605815	      0.11791546	     11.67440408	     -2.77553325	     -7.49999987	      4.26532317	     -0.00073176	      2.58845044	      8.64109705	      0.15081559	     12.53095523	     -2.30332974	     -7.49999987	    -15.80484397	     -0.84826624	     -3.75808988	      3.86848769	     -7.57743522	      8.12360051	     27.26334729	     78.57960440	      5.08895518	    -10.28131861	     11.83331613	     35.63226575	     88.98698390
      3.66666670	     -1.49057688	      1.23152026	      6.69514958	     -0.08105218	      1.27502351	      0.01541013	      2.30705902	     -2.09620527	     -5.53809759	      7.47774761	      0.13051132	     11.83188046	     -3.24389063	     -7.49999987	      5.06366539	      0.04025889	      2.95050651	      9.67204031	      0.16880895	     12.62079810	     -3.84071181	     -7.49999987	    -15.96374911	     -0.74212872	     -3.51609237	      3.64880259	     -7.80931574	      7.74509745	     27.19323517	     80.93101212	      4.89969718	    -10.08968657	     11.32221740	     35.28277099	     91.92067004
      3.68333330	     -1.54451521	      1.25872765	      6.52088909	     -0.08102927	      1.26935991	      0.01554862	      2.77869763	     -2.15598651	     -5.32972772	      8.37991876	      0.14625717	     12.17339060	     -3.52604206	     -7.49999987	      5.62227678	      0.10099509	      2.95694536	     10.92795415	      0.19072878	     13.01016830	     -4.84615551	     -7.49999987	    -16.59725196	     -0.67495476	     -3.27210524	      3.56996105	     -8.06864985	      7.70959610	     27.25623812	     80.93851622	      4.75589225	    -10.02231937	     11.29528512	     35.37810578	     91.92559996
      3.70000000	     -1.89785358	      1.30294112	      6.20237940	     -0.08126850	      1.26793791	      0.01620388	      3.84678903	     -2.29196237	     -4.94901425	      9.55245234	      0.16672175	     12.76281881	     -3.80182767	     -7.49999987	      6.68715701	      0.17470073	      2.64335781	     12.46612390	      0.21757491	     13.66300170	     -5.44704860	     -7.49999987	    -16.97323322	     -0.66529187	     -3.03318662	      3.28623497	     -8.38060020	      7.60691732	     28.17405965	     80.05620629	      4.29839198	    -10.04635925	     11.23482118	     36.04523952	     90.56745259
      3.71666670	     -1.68360083	      1.36298616	      5.95780002	     -0.08330241	      1.26500615	      0.01725812	      4.42540335	     -2.36597864	     -4.44189934	     11.01130053	      0.19218345	     13.05778259	     -4.64604091	     -7.49999987	      7.28598036	      0.32914016	      3.12269322	     14.13325144	      0.24667177	     13.73708499	     -7.50532472	     -7.49999987	    -18.31283423	     -0.57056214	     -2.83417473	      4.03996085	     -8.54886469	      7.62725437	     27.60338057	     79.70976196	      4.92536954	     -9.92522763	     11.30800993	     35.56634241	     90.07978127
      3.73333330	     -2.08711938	      1.40781004	      5.73724398	     -0.08530492	      1.25436453	      0.01875252	      6.09209706	     -2.48010932	     -3.93208508	     13.31226618	      0.23234288	     14.06982711	     -5.49087290	     -7.49999987	      8.92936544	      0.50213475	      3.38150822	     16.45409905	      0.28717820	     14.50152967	     -9.29995062	     -7.49999987	    -18.99174276	     -0.57493989	     -2.64126721	      4.43708417	     -8.79609178	      7.85560202	     27.83137401	     79.89747701	      5.20890795	     -9.98699744	     11.53637787	     35.77924288	     90.42551206
      3.75000000	     -2.32490723	      1.49644614	      5.51266204	     -0.08375690	      1.25259074	      0.01852394	      7.72166611	     -2.65771421	     -3.41516459	     15.93709057	      0.27815470	     15.03662632	     -6.48552203	     -7.49999987	     10.50923221	      0.68012463	      3.57028658	     18.94753640	      0.33069690	     15.24718289	    -10.78855818	     -7.49999987	    -20.07038217	     -0.59091991	     -2.54069442	      5.06023157	     -8.95596897	      7.96875670	     28.13948353	     79.22367212	      5.72150727	    -10.06193907	     11.74274556	     35.99103113	     89.50404026
      3.76666670	     -2.76134136	      1.51924253	      5.27778321	     -0.08181750	      1.23872781	      0.01888083	      9.88334899	     -2.78132037	     -2.78008323	     19.32790052	      0.33733550	     16.47540739	     -7.61422744	     -7.49999987	     12.54462436	      0.80494653	      3.68555332	     21.96834766	      0.38342000	     16.62170539	    -12.14430197	     -7.49999987	    -20.97633516	     -0.59749434	     -2.32268974	      5.56308756	     -9.19445400	      8.18981483	     28.77169933	     79.46448997	      6.16146861	    -10.12787492	     11.90388918	     36.51289356	     89.88038740
      3.78333330	     -3.12047619	      1.51469000	      4.95211629	     -0.07729338	      1.22747530	      0.01900145	     12.21745874	     -2.89567567	     -2.18321996	     23.29093088	      0.40650343	     17.96036056	     -9.02121808	     -7.49999987	     14.39998531	      0.81831842	      3.62272909	     25.17152312	      0.43932596	     18.22207505	    -13.17333364	     -7.49999987	    -21.88252434	     -0.53113475	     -2.12384164	      6.21989405	     -9.39109824	      8.08652440	     29.34897125	     81.41460034	      6.54778590	    -10.01261841	     11.28130521	     36.88209664	     92.97795304
      3.80000000	     -3.41650360	      1.52430408	      4.52719077	     -0.07192899	      1.22389933	      0.01686445	     14.62647411	     -3.06610996	     -1.62762955	     27.75182136	      0.48436066	     19.82767652	     -9.95157215	     -7.49999987	     16.22219920	      0.89936280	      3.73393927	     28.75163085	      0.50181062	     19.97115220	    -14.22263877	     -7.49999987	    -22.79285228	     -0.47561794	     -1.84571199	      6.88051031	     -9.62190125	      8.13914416	     29.98265425	     81.50242733	      6.92256639	     -9.86607233	     11.29690586	     37.20332314	     92.96224789
      3.81666670	     -3.95204256	      1.53414576	      4.13785604	     -0.08008205	      1.21355619	      0.01831530	     17.69713620	     -3.15365890	     -0.97695674	     32.63988422	      0.56967345	     21.66377289	    -11.12137052	     -7.49999987	     18.78261582	      1.04322812	      3.87868974	     33.10360588	      0.57776692	     21.59733350	    -15.79988083	     -7.49999987	    -23.87826125	     -0.44306670	     -1.70142640	      7.88394570	     -9.74257713	      7.97278872	     31.09729244	     78.65422471	      7.62276850	     -9.77744355	     11.08066932	     37.99543898	     90.37070710
